<?xml version="1.0" encoding="utf-8"?>
<!-- Generator: Adobe Illustrator 15.0.2, SVG Export Plug-In . SVG Version: 6.00 Build 0)  -->
<!DOCTYPE svg PUBLIC "-//W3C//DTD SVG 1.1//EN" "http://www.w3.org/Graphics/SVG/1.1/DTD/svg11.dtd">
<svg version="1.1" xmlns="http://www.w3.org/2000/svg" xmlns:xlink="http://www.w3.org/1999/xlink" x="0px" y="0px" width="14px"
	 height="14px" viewBox="0 0 14 14" enable-background="new 0 0 14 14" xml:space="preserve">
<g id="Layer_2">
</g>
<g id="Layer_1">
	<g>
		<path fill="#FFFFFF" d="M16.079,6.789l0.013-0.065c-1.498-0.3-3.034-0.302-3.963-0.264c0.153-0.551,0.199-1.184,0.199-1.891
			c0-1.012-0.381-1.821-0.998-2.438c0.108-0.349,0.251-1.123-0.145-2.112c0,0-0.699-0.222-2.279,0.835
			C8.288,0.699,7.629,0.623,6.969,0.623c-0.727,0-1.459,0.093-2.144,0.28C3.194-0.209,2.475,0.02,2.475,0.02
			C2.004,1.194,2.295,2.064,2.383,2.28C1.831,2.877,1.494,3.638,1.494,4.569c0,0.705,0.08,1.337,0.276,1.887
			C0.832,6.422-0.648,6.435-2.092,6.724l0.013,0.065C-0.626,6.5,0.863,6.488,1.795,6.524C1.838,6.639,1.887,6.749,1.94,6.855
			C1.019,6.885-0.555,7.002-2.062,7.428l0.019,0.064c1.52-0.428,3.106-0.543,4.019-0.571C2.526,7.948,3.611,8.61,5.542,8.818
			C5.269,9.004,4.989,9.316,4.875,9.845C4.502,10.025,3.32,10.462,2.61,9.24c0,0-0.397-0.725-1.157-0.783
			c0,0-0.737-0.01-0.052,0.461c0,0,0.494,0.231,0.834,1.104c0,0,0.444,1.49,2.587,1.013v1.539c0,0-0.046,0.545-0.545,0.725
			c0,0-0.294,0.204,0.022,0.318c0,0,1.384,0.114,1.384-1.021v-1.679c0,0-0.055-0.666,0.272-0.896v2.758c0,0-0.022,0.656-0.363,0.906
			c0,0-0.226,0.409,0.273,0.295c0,0,0.951-0.136,0.997-1.247l0.022-2.791h0.229l0.022,2.791c0.046,1.111,0.997,1.247,0.997,1.247
			c0.499,0.114,0.273-0.295,0.273-0.295c-0.341-0.25-0.363-0.906-0.363-0.906v-2.733c0.327,0.255,0.272,0.872,0.272,0.872v1.679
			c0,1.135,1.384,1.021,1.384,1.021c0.316-0.114,0.022-0.318,0.022-0.318c-0.499-0.18-0.545-0.725-0.545-0.725v-2.2
			c0-0.857-0.361-1.312-0.715-1.552c2.06-0.204,3.049-0.87,3.505-1.902c0.901,0.025,2.524,0.135,4.077,0.572l0.019-0.064
			c-1.545-0.436-3.157-0.549-4.068-0.575c0.043-0.104,0.081-0.213,0.114-0.324C13.032,6.488,14.575,6.488,16.079,6.789L16.079,6.789
			z M16.079,6.789"/>
	</g>
</g>
</svg>
