<svg xmlns="http://www.w3.org/2000/svg" xmlns:xlink="http://www.w3.org/1999/xlink" version="1.1" id="Calque_1" x="0px" y="0px" width="82.7272727273px" height="100px" viewBox="0 0 91.59 110.063" enable-background="new 0 0 91.59 110.063" xml:space="preserve">
<g>
	<g>
		<g>
			<g>
				<path d="M74.812,14.155v5.839c1.396,1.43,2.263,3.379,2.263,5.536c0,4.392-3.557,7.951-7.95,7.951      c-4.39,0-7.951-3.559-7.951-7.951c0-2.157,0.867-4.106,2.263-5.536v-5.839H28.152v5.839c1.396,1.43,2.263,3.379,2.263,5.536      c0,4.392-3.559,7.951-7.95,7.951c-4.39,0-7.947-3.559-7.947-7.951c0-2.157,0.865-4.106,2.259-5.536v-5.839H0v95.909h91.59      V14.155H74.812z M84.234,102.358H7.358v-64.73h76.876V102.358z"/>
			</g>
		</g>
		<g>
			<rect x="68.404" y="47.278" width="9.158" height="9.504"/>
		</g>
		<g>
			<rect x="55.013" y="47.278" width="9.157" height="9.504"/>
		</g>
		<g>
			<rect x="41.62" y="47.278" width="9.154" height="9.504"/>
		</g>
		<g>
			<rect x="68.404" y="60.526" width="9.158" height="9.504"/>
		</g>
		<g>
			<rect x="55.013" y="60.526" width="9.157" height="9.504"/>
		</g>
		<g>
			<rect x="41.62" y="60.526" width="9.154" height="9.504"/>
		</g>
		<g>
			<rect x="28.226" y="60.526" width="9.158" height="9.504"/>
		</g>
		<g>
			<rect x="14.834" y="60.526" width="9.156" height="9.504"/>
		</g>
		<g>
			<rect x="68.404" y="73.773" width="9.158" height="9.506"/>
		</g>
		<g>
			<rect x="55.013" y="73.773" width="9.157" height="9.506"/>
		</g>
		<g>
			<rect x="41.62" y="73.773" width="9.154" height="9.506"/>
		</g>
		<g>
			<rect x="28.226" y="73.773" width="9.158" height="9.506"/>
		</g>
		<g>
			<rect x="14.834" y="73.773" width="9.156" height="9.506"/>
		</g>
		<g>
			<rect x="55.013" y="87.025" width="9.157" height="9.502"/>
		</g>
		<g>
			<rect x="41.62" y="87.025" width="9.154" height="9.502"/>
		</g>
		<g>
			<rect x="28.226" y="87.025" width="9.158" height="9.502"/>
		</g>
		<g>
			<rect x="14.834" y="87.025" width="9.156" height="9.502"/>
		</g>
		<g>
			<path d="M69.336,28.783c1.486,0,2.697-1.206,2.697-2.696V2.696C72.033,1.208,70.822,0,69.336,0c-1.487,0-2.694,1.208-2.694,2.696     v23.39C66.642,27.577,67.849,28.783,69.336,28.783z"/>
		</g>
		<g>
			<path d="M22.416,28.783c1.489,0,2.696-1.206,2.696-2.696V2.696C25.112,1.208,23.904,0,22.416,0c-1.487,0-2.694,1.208-2.694,2.696     v23.39C19.721,27.577,20.928,28.783,22.416,28.783z"/>
		</g>
	</g>
</g>
</svg>